#!OML:ASF E:\Steps\Project 1\Capture day 1\Session 2\Subject.ASF
:FULLY-SPECIFIED
:DEGREES
439
root 9.61956 16.2981 5.39947 -160.397 -0.713016 177.989
lowerback -21.2774 -2.43997 -3.99757
upperback 2.5623 -2.25627 0.133486
thorax 15.1562 -1.3838 1.66707
lowerneck -3.96269 -1.92495 0.149202
upperneck 20.6139 -1.72162 1.82844
head 6.94721 -0.167934 0.503618
rclavicle -3.53091e-014 9.74045e-015
rhumerus -39.312 -15.7484 -77.7306
rradius 38.1349
rwrist -4.064
rhand -6.42677 -52.0436
rfingers 7.12502
rthumb 19.4221 -81.0936
lclavicle -3.53091e-014 9.74045e-015
lhumerus -31.7334 3.54082 80.0308
lradius 29.6038
lwrist -1.94577
lhand -20.6848 -13.4134
lfingers 7.12502
lthumb 5.6787 16.4905
rfemur -28.963 5.38107 20.1275
rtibia 13.8054
rfoot -13.9805 -6.40504
rtoes -31.7056
lfemur -48.2759 -1.99433 -22.4652
ltibia 78.1585
lfoot -9.40413 5.97147
ltoes -31.3083
440
root 9.63623 16.31 5.35116 -160.643 -0.843797 177.95
lowerback -20.9922 -2.46817 -4.18266
upperback 2.63037 -2.26592 0.227704
thorax 15.0829 -1.40835 1.88439
lowerneck -3.72279 -2.0437 -0.0722355
upperneck 20.5405 -1.87763 1.98487
head 6.88641 -0.245018 0.581638
rclavicle -2.23633e-015 8.74653e-015
rhumerus -38.939 -15.2438 -77.8966
rradius 38.4594
rwrist -4.27573
rhand -6.68451 -49.4547
rfingers 7.12502
rthumb 19.1742 -78.5295
lclavicle -2.23633e-015 8.74653e-015
lhumerus -31.677 3.78742 80.201
lradius 28.9251
lwrist -1.86751
lhand -20.9468 -13.2362
lfingers 7.12502
lthumb 5.42569 16.6744
rfemur -28.2812 5.45646 20.1973
rtibia 13.4572
rfoot -14.0315 -6.6197
rtoes -31.5201
lfemur -49.7783 -1.94081 -22.5325
ltibia 80.3695
lfoot -10.3654 6.52332
ltoes -30.0969
441
root 9.64969 16.3227 5.30269 -160.862 -0.932004 177.996
lowerback -20.6166 -2.44974 -4.2099
upperback 2.64484 -2.25858 0.297534
thorax 14.8808 -1.40851 1.99274
lowerneck -3.65413 -2.12994 -0.123846
upperneck 20.6695 -1.96827 1.98217
head 6.91765 -0.28279 0.584933
rclavicle 1.67228e-014 -1.17283e-014
rhumerus -38.5851 -14.9403 -78.0122
rradius 38.5652
rwrist -4.29552
rhand -6.52135 -50.0581
rfingers 7.12502
rthumb 19.3311 -79.1173
lclavicle 1.67228e-014 -1.17283e-014
lhumerus -31.9787 4.45991 80.1945
lradius 28.5146
lwrist -2.21002
lhand -20.9427 -13.4324
lfingers 7.12502
lthumb 5.42971 16.478
rfemur -27.794 5.4482 20.3802
rtibia 13.404
rfoot -14.2281 -6.67281
rtoes -31.2755
lfemur -51.3181 -1.90099 -22.542
ltibia 82.428
lfoot -11.2008 6.86906
ltoes -29.8822
442
root 9.66348 16.3322 5.25694 -160.97 -0.979989 177.895
lowerback -20.3321 -2.43981 -4.33083
upperback 2.67763 -2.22297 0.276625
thorax 14.7528 -1.40001 2.05677
lowerneck -3.70312 -2.08733 -0.0405592
upperneck 20.7014 -1.91323 1.97008
head 6.93495 -0.249174 0.570883
rclavicle -2.48481e-015 -2.13694e-015
rhumerus -38.2043 -14.6533 -78.2586
rradius 38.9082
rwrist -4.20645
rhand -6.49994 -50.4015
rfingers 7.12502
rthumb 19.3517 -79.4586
lclavicle -2.48481e-015 -2.13694e-015
lhumerus -32.1979 5.10722 80.0924
lradius 28.2183
lwrist -2.5884
lhand -20.9092 -13.3318
lfingers 7.12502
lthumb 5.462 16.5778
rfemur -27.2593 5.53483 20.341
rtibia 13.0245
rfoot -14.2586 -6.79266
rtoes -30.9951
lfemur -53.0346 -1.96372 -22.7019
ltibia 84.4409
lfoot -12.1295 7.08794
ltoes -29.3298
443
root 9.68075 16.3413 5.21599 -160.98 -0.98734 177.797
lowerback -20.2713 -2.38588 -4.52786
upperback 2.79749 -2.09514 0.251664
thorax 14.8579 -1.35979 2.18248
lowerneck -3.57787 -2.04454 0.109368
upperneck 20.2288 -1.90665 1.94382
head 6.75818 -0.261504 0.534624
rclavicle -1.92448e-014 -1.2921e-014
rhumerus -37.6129 -14.5353 -78.5202
rradius 39.2499
rwrist -4.19073
rhand -6.68446 -50.7178
rfingers 7.12502
rthumb 19.1743 -79.7926
lclavicle -1.92448e-014 -1.2921e-014
lhumerus -32.0849 5.33894 80.1049
lradius 27.9212
lwrist -2.7001
lhand -20.7788 -12.9384
lfingers 7.12502
lthumb 5.58793 16.9679
rfemur -27.0142 5.73747 20.2792
rtibia 12.9181
rfoot -14.3772 -7.05465
rtoes -30.777
lfemur -54.8816 -2.02579 -22.8042
ltibia 86.3839
lfoot -13.0246 7.11083
ltoes -27.9966
444
root 9.69288 16.3512 5.17001 -161.006 -0.951063 177.827
lowerback -20.329 -2.29178 -4.57812
upperback 2.95555 -1.94484 0.23924
thorax 15.0713 -1.29983 2.24317
lowerneck -4.03469 -2.15057 0.0839905
upperneck 20.7138 -2.06154 2.10094
head 6.9994 -0.305311 0.57915
rclavicle -5.93869e-015 -4.77083e-015
rhumerus -36.9201 -14.4814 -78.8028
rradius 39.4371
rwrist -4.17306
rhand -6.89331 -50.7207
rfingers 7.12502
rthumb 18.9734 -79.8153
lclavicle -5.93869e-015 -4.77083e-015
lhumerus -31.7286 5.53621 80.0904
lradius 27.3204
lwrist -2.69161
lhand -20.5495 -13.2721
lfingers 7.12502
lthumb 5.80927 16.6283
rfemur -26.7306 5.8567 20.3761
rtibia 12.775
rfoot -14.5044 -7.10635
rtoes -30.8892
lfemur -56.6449 -2.03384 -22.7867
ltibia 88.1284
lfoot -13.6471 6.75025
ltoes -26.614
445
root 9.69976 16.3593 5.1227 -161.008 -0.747246 177.863
lowerback -20.3728 -2.16572 -4.55004
upperback 2.98298 -1.77358 0.191243
thorax 15.113 -1.21827 2.22808
lowerneck -3.78864 -2.1864 0.121095
upperneck 20.7275 -2.1156 2.26475
head 6.96235 -0.305791 0.624634
rclavicle 6.4605e-015 5.01931e-015
rhumerus -36.4761 -14.4518 -78.9994
rradius 39.5902
rwrist -3.8743
rhand -6.8901 -50.5541
rfingers 7.12502
rthumb 18.9765 -79.6484
lclavicle 6.4605e-015 5.01931e-015
lhumerus -31.6494 5.8503 79.9466
lradius 26.6591
lwrist -2.8409
lhand -20.4241 -14.0713
lfingers 7.12502
lthumb 5.93033 15.8257
rfemur -26.5029 5.84256 20.4841
rtibia 12.6705
rfoot -14.5845 -6.8442
rtoes -32.2777
lfemur -58.4306 -1.93687 -22.8325
ltibia 89.7476
lfoot -14.305 6.23687
ltoes -26.7939
446
root 9.71326 16.3761 5.07054 -161.382 -0.781812 177.781
lowerback -19.9951 -2.17688 -4.75814
upperback 3.00312 -1.75746 0.216853
thorax 14.9192 -1.22756 2.38888
lowerneck -3.19332 -2.18954 0.206254
upperneck 20.5995 -2.05381 2.1055
head 6.81232 -0.274996 0.567553
rclavicle 6.27414e-015 1.49089e-016
rhumerus -36.2855 -14.3169 -78.992
rradius 39.7636
rwrist -3.58376
rhand -6.72573 -50.9048
rfingers 7.12502
rthumb 19.1346 -79.9836
lclavicle 6.27414e-015 1.49089e-016
lhumerus -32.0987 6.12818 79.9192
lradius 26.3974
lwrist -2.90995
lhand -20.4317 -14.0085
lfingers 7.12502
lthumb 5.92303 15.8887
rfemur -25.6196 5.93692 20.4825
rtibia 12.2624
rfoot -14.6846 -7.04033
rtoes -32.5111
lfemur -59.6917 -2.08635 -22.8854
ltibia 91.0785
lfoot -14.832 6.03242
ltoes -28.909
447
root 9.72434 16.388 5.02485 -161.44 -0.751851 177.699
lowerback -19.7135 -2.11616 -4.90331
upperback 3.05665 -1.65201 0.21179
thorax 14.8109 -1.19074 2.50515
lowerneck -3.4526 -2.20146 0.427774
upperneck 20.7468 -2.04736 1.8263
head 6.90003 -0.275026 0.439687
rclavicle -1.61513e-015 5.66536e-015
rhumerus -35.8364 -14.251 -79.1111
rradius 40.0975
rwrist -3.69383
rhand -6.7212 -51.213
rfingers 7.12502
rthumb 19.1389 -80.2913
lclavicle -1.61513e-015 5.66536e-015
lhumerus -32.0945 6.3523 79.9706
lradius 26.1182
lwrist -2.83695
lhand -20.3863 -13.2246
lfingers 7.12502
lthumb 5.96684 16.6714
rfemur -25.2449 5.91648 20.4836
rtibia 12.1184
rfoot -14.9065 -7.0803
rtoes -29.3751
lfemur -61.3346 -2.22976 -22.9581
ltibia 92.2845
lfoot -14.9631 5.96225
ltoes -30.2533
448
root 9.73511 16.3965 4.98451 -161.384 -0.642596 177.619
lowerback -19.5266 -1.99972 -5.01145
upperback 3.01084 -1.47235 0.135543
thorax 14.6295 -1.1106 2.54169
lowerneck -3.54801 -2.26015 0.561038
upperneck 20.9775 -2.12242 1.84931
head 6.99106 -0.284368 0.420826
rclavicle 6.31141e-015 4.07509e-015
rhumerus -35.627 -14.2697 -79.2688
rradius 40.5081
rwrist -3.92984
rhand -6.93598 -51.2861
rfingers 7.12502
rthumb 18.9324 -80.3848
lclavicle 6.31141e-015 4.07509e-015
lhumerus -32.2406 6.46873 79.9053
lradius 25.9162
lwrist -2.92046
lhand -20.273 -12.6022
lfingers 7.12502
lthumb 6.0763 17.2907
rfemur -25.1438 5.98662 20.4392
rtibia 12.1487
rfoot -15.0986 -7.10866
rtoes -30.263
lfemur -63.1514 -2.31403 -23.0391
ltibia 93.4533
lfoot -15.2123 5.68826
ltoes -30.1771
449
root 9.74546 16.4044 4.9436 -161.441 -0.497799 177.675
lowerback -19.3282 -1.85051 -4.98163
upperback 3.07101 -1.28411 0.103027
thorax 14.5631 -1.01997 2.55041
lowerneck -3.93796 -2.3364 0.428791
upperneck 21.3252 -2.26333 2.14781
head 7.17999 -0.322595 0.529278
rclavicle 6.83322e-015 8.94531e-016
rhumerus -35.2788 -14.2977 -79.4117
rradius 40.8322
rwrist -4.13302
rhand -6.92569 -51.7653
rfingers 7.12502
rthumb 18.9423 -80.8629
lclavicle 6.83322e-015 8.94531e-016
lhumerus -32.315 6.49017 79.9006
lradius 25.8406
lwrist -3.03699
lhand -19.9144 -12.5773
lfingers 7.12502
lthumb 6.42249 17.3053
rfemur -24.8642 6.33877 20.4917
rtibia 11.9961
rfoot -15.1817 -7.2559
rtoes -31.2763
lfemur -64.8355 -2.29916 -22.9848
ltibia 94.5188
lfoot -15.6041 5.55055
ltoes -32.0647
450
root 9.75169 16.4111 4.89616 -161.517 -0.394872 177.696
lowerback -19.2052 -1.73906 -4.94759
upperback 3.17287 -1.14349 0.0864043
thorax 14.5965 -0.953955 2.55748
lowerneck -4.39117 -2.47978 0.224695
upperneck 21.6972 -2.47765 2.34175
head 7.39038 -0.411443 0.60978
rclavicle 9.36773e-015 1.29707e-014
rhumerus -34.9116 -14.2646 -79.5265
rradius 41.1506
rwrist -4.32757
rhand -6.81271 -51.564
rfingers 7.12502
rthumb 19.0509 -80.6509
lclavicle 9.36773e-015 1.29707e-014
lhumerus -32.2743 6.50853 79.9391
lradius 25.6419
lwrist -3.03051
lhand -19.5438 -12.9835
lfingers 7.12502
lthumb 6.78021 16.888
rfemur -24.4579 6.47801 20.5648
rtibia 11.7451
rfoot -15.2699 -7.23798
rtoes -31.7574
lfemur -66.3479 -2.33206 -22.9555
ltibia 95.182
lfoot -15.793 5.6017
ltoes -34.616
